#!OML:ASF G:\JayActor3\Patient Classification 1\Patient 1\Session 6\male.ASF
:FULLY-SPECIFIED
:DEGREES
3607
root -0.550764 15.1841 -2.59568 1173.77 -89.3079 -1165.02
lowerback 34.9236 0.0547017 -0.782643
upperback 16.6702 -2.38447 -0.782629
thorax 0.62804 -2.04563 0.290215
lowerneck 5.08624 -8.29121 -4.55537
upperneck -20.4769 -10.8915 9.52867
head -6.21802 -6.08079 4.50803
rclavicle -2.46493e-014 -2.34566e-014
rhumerus -18.5214 0.697832 -84.7599
rradius 61.7376
rwrist 0.275905
rhand -25.0227 -5.39135
rfingers 7.12502
rthumb 1.4896 -35.3659
lclavicle -2.46493e-014 -2.34566e-014
lhumerus 28.976 -34.1923 48.9541
lradius 101.55
lwrist 10.2532
lhand 3.17332 16.6452
lfingers 7.12502
lthumb 28.6262 44.4726
rfemur -50.179 -9.82359 22.3899
rtibia 64.4041
rfoot -23.3267 -14.4839
rtoes -2.60317
lfemur -47.5466 14.0897 -23.3496
ltibia 57.1939
lfoot -18.2999 5.78424
ltoes -1.01217
3608
root -0.550634 15.185 -2.6014 1174.01 -89.3409 -1165.25
lowerback 34.9197 0.0551782 -0.797335
upperback 16.6646 -2.3862 -0.760259
thorax 0.62464 -2.04816 0.321809
lowerneck 5.16395 -8.34495 -4.58496
upperneck -20.7244 -10.9466 9.70252
head -6.2924 -6.12862 4.58779
rclavicle 2.06736e-014 2.50469e-014
rhumerus -18.5098 0.727202 -84.7403
rradius 61.7439
rwrist 0.27723
rhand -24.999 -5.40863
rfingers 7.12502
rthumb 1.51252 -35.383
lclavicle 2.06736e-014 2.50469e-014
lhumerus 28.7695 -34.2011 49.0425
lradius 101.5
lwrist 10.2067
lhand 3.29577 16.7105
lfingers 7.12502
lthumb 28.7431 44.5181
rfemur -50.2038 -9.80274 22.3767
rtibia 64.4071
rfoot -23.3343 -14.4961
rtoes -2.59806
lfemur -47.5508 14.0829 -23.3631
ltibia 57.1627
lfoot -18.2782 5.78864
ltoes -1.02532
3609
root -0.55064 15.1861 -2.60722 1173.81 -89.3795 -1165.03
lowerback 34.9174 0.0537827 -0.8082
upperback 16.6604 -2.38944 -0.742351
thorax 0.621915 -2.05097 0.34719
lowerneck 5.24689 -8.39688 -4.60602
upperneck -20.9776 -10.9981 9.87555
head -6.37041 -6.17559 4.66694
rclavicle 2.3059e-014 1.39149e-014
rhumerus -18.502 0.747433 -84.7245
rradius 61.7557
rwrist 0.285422
rhand -24.9706 -5.42929
rfingers 7.12502
rthumb 1.53996 -35.4035
lclavicle 2.3059e-014 1.39149e-014
lhumerus 28.5873 -34.2106 49.1236
lradius 101.421
lwrist 10.113
lhand 3.3717 16.7671
lfingers 7.12502
lthumb 28.8157 44.5624
rfemur -50.2232 -9.79297 22.3579
rtibia 64.4115
rfoot -23.3424 -14.5048
rtoes -2.59865
lfemur -47.5462 14.0726 -23.3815
ltibia 57.1281
lfoot -18.2589 5.79082
ltoes -1.02959
3610
root -0.550582 15.1871 -2.61323 1173.27 -89.4158 -1164.48
lowerback 34.9175 0.0503361 -0.813776
upperback 16.6561 -2.3937 -0.724731
thorax 0.618218 -2.05394 0.369864
lowerneck 5.33311 -8.44679 -4.62352
upperneck -21.2336 -11.0465 10.0461
head -6.45055 -6.22141 4.74547
rclavicle -6.36111e-015 1.19271e-015
rhumerus -18.4989 0.768359 -84.7104
rradius 61.7731
rwrist 0.290309
rhand -24.9515 -5.44267
rfingers 7.12502
rthumb 1.55836 -35.4167
lclavicle -6.36111e-015 1.19271e-015
lhumerus 28.4214 -34.2146 49.2078
lradius 101.323
lwrist 9.99686
lhand 3.42378 16.8337
lfingers 7.12502
lthumb 28.8654 44.6205
rfemur -50.2393 -9.78856 22.3424
rtibia 64.4169
rfoot -23.3554 -14.5072
rtoes -2.58719
lfemur -47.5393 14.0608 -23.3962
ltibia 57.0931
lfoot -18.2389 5.79095
ltoes -1.03174
3611
root -0.550589 15.188 -2.61956 1172.49 -89.4571 -1163.69
lowerback 34.9191 0.047862 -0.824033
upperback 16.6516 -2.39819 -0.708004
thorax 0.613747 -2.05725 0.394178
lowerneck 5.41203 -8.49436 -4.6382
upperneck -21.4795 -11.0917 10.2111
head -6.52705 -6.26535 4.8211
rclavicle 2.3059e-014 3.33958e-014
rhumerus -18.5001 0.789089 -84.6977
rradius 61.796
rwrist 0.299232
rhand -24.9411 -5.45039
rfingers 7.12502
rthumb 1.56848 -35.4244
lclavicle 2.3059e-014 3.33958e-014
lhumerus 28.2675 -34.2095 49.2968
lradius 101.225
lwrist 9.88883
lhand 3.50118 16.9328
lfingers 7.12502
lthumb 28.9394 44.707
rfemur -50.2544 -9.7889 22.3231
rtibia 64.4242
rfoot -23.3688 -14.508
rtoes -2.57336
lfemur -47.5301 14.0479 -23.4147
ltibia 57.0584
lfoot -18.2185 5.78982
ltoes -1.03656
3612
root -0.550548 15.1886 -2.62622 1171.65 -89.4964 -1162.84
lowerback 34.9233 0.0459462 -0.834595
upperback 16.6456 -2.40194 -0.688956
thorax 0.606953 -2.06031 0.42097
lowerneck 5.48624 -8.53936 -4.65555
upperneck -21.7142 -11.1343 10.3695
head -6.59967 -6.30709 4.89438
rclavicle 1.59028e-014 -7.95139e-016
rhumerus -18.5058 0.815347 -84.6834
rradius 61.8235
rwrist 0.297125
rhand -24.9538 -5.4462
rfingers 7.12502
rthumb 1.55618 -35.4203
lclavicle 1.59028e-014 -7.95139e-016
lhumerus 28.1069 -34.1945 49.4078
lradius 101.148
lwrist 9.8093
lhand 3.63981 17.0749
lfingers 7.12502
lthumb 29.0718 44.8263
rfemur -50.268 -9.7899 22.3076
rtibia 64.4323
rfoot -23.3825 -14.5088
rtoes -2.55464
lfemur -47.521 14.0383 -23.4298
ltibia 57.0268
lfoot -18.1966 5.78732
ltoes -1.05209
3613
root -0.550401 15.189 -2.63345 1170.97 -89.5282 -1162.15
lowerback 34.9267 0.0449258 -0.845125
upperback 16.6391 -2.4044 -0.665887
thorax 0.600025 -2.06298 0.451547
lowerneck 5.54952 -8.58202 -4.67755
upperneck -21.9344 -11.1746 10.5231
head -6.66601 -6.34672 4.96554
rclavicle 2.70347e-014 2.62396e-014
rhumerus -18.5108 0.849288 -84.6694
rradius 61.8506
rwrist 0.291742
rhand -24.9792 -5.43605
rfingers 7.12502
rthumb 1.5317 -35.4103
lclavicle 2.70347e-014 2.62396e-014
lhumerus 27.9333 -34.1649 49.5432
lradius 101.109
lwrist 9.77611
lhand 3.84025 17.2533
lfingers 7.12502
lthumb 29.2632 44.9715
rfemur -50.2828 -9.78461 22.3028
rtibia 64.4402
rfoot -23.3993 -14.5116
rtoes -2.51834
lfemur -47.5169 14.0347 -23.4353
ltibia 56.9991
lfoot -18.1719 5.78251
ltoes -1.08061
